<svg xmlns="http://www.w3.org/2000/svg" width="128" height="128" viewBox="0 0 128 128" role="img" aria-label="DebugBrief icon">
  <rect x="6" y="6" width="116" height="116" rx="26" fill="#0B1020"/>
  <rect x="12" y="12" width="104" height="104" rx="21" fill="none" stroke="#23304A" stroke-width="2"/>
  <rect x="34" y="22" width="56" height="82" rx="8" fill="#F8FAFC"/>
  <path d="M78 22 L90 34 H78 Z" fill="#CBD5E1"/>
  <rect x="44" y="45" width="34" height="5" rx="2" fill="#334155"/>
  <rect x="44" y="58" width="42" height="5" rx="2" fill="#334155"/>
  <rect x="44" y="71" width="28" height="5" rx="2" fill="#334155"/>
  <path d="M64 50 L55 63 H65 L56 78" fill="none" stroke="#22D3EE" stroke-width="5" stroke-linecap="round" stroke-linejoin="round"/>
  <path d="M72 50 L81 63 H71 L80 78" fill="none" stroke="#22D3EE" stroke-width="5" stroke-linecap="round" stroke-linejoin="round"/>
  <path d="M75 69 L63 94 L78 91 L70 110 L94 78 L80 81 Z" fill="#FACC15" stroke="#A16207" stroke-width="2" stroke-linejoin="round"/>
</svg>

